<svg width="416" height="323" viewBox="0 0 416 323" fill="none" xmlns="http://www.w3.org/2000/svg">
<path d="M16.728 267.272H42.84C46.68 267.272 49.88 266.205 52.44 264.072C55 261.853 56.28 258.696 56.28 254.6C56.28 249.992 55.128 246.749 52.824 244.872C50.52 242.995 47.192 242.056 42.84 242.056H16.728V267.272ZM0.728018 229H45.144C53.336 229 59.9067 230.877 64.856 234.632C69.8054 238.387 72.28 244.061 72.28 251.656C72.28 256.264 71.128 260.232 68.824 263.56C66.6054 266.803 63.4054 269.32 59.224 271.112V271.368C64.856 272.563 69.1227 275.251 72.024 279.432C74.9254 283.528 76.376 288.691 76.376 294.92C76.376 298.504 75.736 301.875 74.456 305.032C73.176 308.104 71.1707 310.792 68.44 313.096C65.7094 315.315 62.2107 317.107 57.944 318.472C53.6774 319.752 48.6 320.392 42.712 320.392H0.728018V229ZM16.728 307.336H45.016C49.88 307.336 53.6347 306.099 56.28 303.624C59.0107 301.064 60.376 297.48 60.376 292.872C60.376 288.349 59.0107 284.893 56.28 282.504C53.6347 280.029 49.88 278.792 45.016 278.792H16.728V307.336Z" fill="black"/>
<path d="M141.669 305.672C141.669 307.464 141.882 308.744 142.309 309.512C142.821 310.28 143.76 310.664 145.125 310.664C145.552 310.664 146.064 310.664 146.661 310.664C147.258 310.664 147.941 310.579 148.709 310.408V320.52C148.197 320.691 147.514 320.861 146.661 321.032C145.893 321.288 145.082 321.501 144.229 321.672C143.376 321.843 142.522 321.971 141.669 322.056C140.816 322.141 140.09 322.184 139.493 322.184C136.506 322.184 134.032 321.587 132.069 320.392C130.106 319.197 128.826 317.107 128.229 314.12C125.328 316.936 121.744 318.984 117.477 320.264C113.296 321.544 109.242 322.184 105.317 322.184C102.33 322.184 99.4717 321.757 96.741 320.904C94.0104 320.136 91.5784 318.984 89.445 317.448C87.397 315.827 85.733 313.821 84.453 311.432C83.2584 308.957 82.661 306.099 82.661 302.856C82.661 298.76 83.3864 295.432 84.837 292.872C86.373 290.312 88.3357 288.307 90.725 286.856C93.1997 285.405 95.9304 284.381 98.917 283.784C101.989 283.101 105.061 282.589 108.133 282.248C110.778 281.736 113.296 281.395 115.685 281.224C118.074 280.968 120.165 280.584 121.957 280.072C123.834 279.56 125.285 278.792 126.309 277.768C127.418 276.659 127.973 275.037 127.973 272.904C127.973 271.027 127.504 269.491 126.565 268.296C125.712 267.101 124.602 266.205 123.237 265.608C121.957 264.925 120.506 264.499 118.885 264.328C117.264 264.072 115.728 263.944 114.277 263.944C110.181 263.944 106.81 264.797 104.165 266.504C101.52 268.211 100.026 270.856 99.685 274.44H85.093C85.349 270.173 86.373 266.632 88.165 263.816C89.957 261 92.2184 258.739 94.949 257.032C97.765 255.325 100.922 254.131 104.421 253.448C107.92 252.765 111.504 252.424 115.173 252.424C118.416 252.424 121.616 252.765 124.773 253.448C127.93 254.131 130.746 255.24 133.221 256.776C135.781 258.312 137.829 260.317 139.365 262.792C140.901 265.181 141.669 268.125 141.669 271.624V305.672ZM127.077 287.24C124.858 288.691 122.128 289.587 118.885 289.928C115.642 290.184 112.4 290.611 109.157 291.208C107.621 291.464 106.128 291.848 104.677 292.36C103.226 292.787 101.946 293.427 100.837 294.28C99.7277 295.048 98.8317 296.115 98.149 297.48C97.5517 298.76 97.253 300.339 97.253 302.216C97.253 303.837 97.7224 305.203 98.661 306.312C99.5997 307.421 100.709 308.317 101.989 309C103.354 309.597 104.805 310.024 106.341 310.28C107.962 310.536 109.413 310.664 110.693 310.664C112.314 310.664 114.064 310.451 115.941 310.024C117.818 309.597 119.568 308.872 121.189 307.848C122.896 306.824 124.304 305.544 125.413 304.008C126.522 302.387 127.077 300.424 127.077 298.12V287.24Z" fill="black"/>
<path d="M148.154 254.216H159.162V234.376H173.754V254.216H186.938V265.096H173.754V300.424C173.754 301.96 173.797 303.283 173.882 304.392C174.053 305.501 174.351 306.44 174.778 307.208C175.29 307.976 176.015 308.573 176.954 309C177.893 309.341 179.173 309.512 180.794 309.512C181.818 309.512 182.842 309.512 183.866 309.512C184.89 309.427 185.914 309.256 186.938 309V320.264C185.317 320.435 183.738 320.605 182.202 320.776C180.666 320.947 179.087 321.032 177.466 321.032C173.626 321.032 170.511 320.691 168.122 320.008C165.818 319.24 163.983 318.173 162.618 316.808C161.338 315.357 160.442 313.565 159.93 311.432C159.503 309.299 159.247 306.867 159.162 304.136V265.096H148.154V254.216Z" fill="black"/>
<path d="M250.299 305.672C250.299 307.464 250.512 308.744 250.939 309.512C251.451 310.28 252.39 310.664 253.755 310.664C254.182 310.664 254.694 310.664 255.291 310.664C255.888 310.664 256.571 310.579 257.339 310.408V320.52C256.827 320.691 256.144 320.861 255.291 321.032C254.523 321.288 253.712 321.501 252.859 321.672C252.006 321.843 251.152 321.971 250.299 322.056C249.446 322.141 248.72 322.184 248.123 322.184C245.136 322.184 242.662 321.587 240.699 320.392C238.736 319.197 237.456 317.107 236.859 314.12C233.958 316.936 230.374 318.984 226.107 320.264C221.926 321.544 217.872 322.184 213.947 322.184C210.96 322.184 208.102 321.757 205.371 320.904C202.64 320.136 200.208 318.984 198.075 317.448C196.027 315.827 194.363 313.821 193.083 311.432C191.888 308.957 191.291 306.099 191.291 302.856C191.291 298.76 192.016 295.432 193.467 292.872C195.003 290.312 196.966 288.307 199.355 286.856C201.83 285.405 204.56 284.381 207.547 283.784C210.619 283.101 213.691 282.589 216.763 282.248C219.408 281.736 221.926 281.395 224.315 281.224C226.704 280.968 228.795 280.584 230.587 280.072C232.464 279.56 233.915 278.792 234.939 277.768C236.048 276.659 236.603 275.037 236.603 272.904C236.603 271.027 236.134 269.491 235.195 268.296C234.342 267.101 233.232 266.205 231.867 265.608C230.587 264.925 229.136 264.499 227.515 264.328C225.894 264.072 224.358 263.944 222.907 263.944C218.811 263.944 215.44 264.797 212.795 266.504C210.15 268.211 208.656 270.856 208.315 274.44H193.723C193.979 270.173 195.003 266.632 196.795 263.816C198.587 261 200.848 258.739 203.579 257.032C206.395 255.325 209.552 254.131 213.051 253.448C216.55 252.765 220.134 252.424 223.803 252.424C227.046 252.424 230.246 252.765 233.403 253.448C236.56 254.131 239.376 255.24 241.851 256.776C244.411 258.312 246.459 260.317 247.995 262.792C249.531 265.181 250.299 268.125 250.299 271.624V305.672ZM235.707 287.24C233.488 288.691 230.758 289.587 227.515 289.928C224.272 290.184 221.03 290.611 217.787 291.208C216.251 291.464 214.758 291.848 213.307 292.36C211.856 292.787 210.576 293.427 209.467 294.28C208.358 295.048 207.462 296.115 206.779 297.48C206.182 298.76 205.883 300.339 205.883 302.216C205.883 303.837 206.352 305.203 207.291 306.312C208.23 307.421 209.339 308.317 210.619 309C211.984 309.597 213.435 310.024 214.971 310.28C216.592 310.536 218.043 310.664 219.323 310.664C220.944 310.664 222.694 310.451 224.571 310.024C226.448 309.597 228.198 308.872 229.819 307.848C231.526 306.824 232.934 305.544 234.043 304.008C235.152 302.387 235.707 300.424 235.707 298.12V287.24Z" fill="black"/>
<path d="M263.44 254.216H277.136V267.016H277.392C277.819 265.224 278.629 263.475 279.824 261.768C281.104 260.061 282.597 258.525 284.304 257.16C286.096 255.709 288.059 254.557 290.192 253.704C292.325 252.851 294.501 252.424 296.72 252.424C298.427 252.424 299.579 252.467 300.176 252.552C300.859 252.637 301.541 252.723 302.224 252.808V266.888C301.2 266.717 300.133 266.589 299.024 266.504C298 266.333 296.976 266.248 295.952 266.248C293.477 266.248 291.131 266.76 288.912 267.784C286.779 268.723 284.901 270.173 283.28 272.136C281.659 274.013 280.379 276.36 279.44 279.176C278.501 281.992 278.032 285.235 278.032 288.904V320.392H263.44V254.216Z" fill="black"/>
<path d="M349.07 281.48C348.899 279.176 348.387 276.957 347.534 274.824C346.766 272.691 345.657 270.856 344.206 269.32C342.841 267.699 341.134 266.419 339.086 265.48C337.123 264.456 334.905 263.944 332.43 263.944C329.87 263.944 327.523 264.413 325.39 265.352C323.342 266.205 321.55 267.443 320.014 269.064C318.563 270.6 317.369 272.435 316.43 274.568C315.577 276.701 315.107 279.005 315.022 281.48H349.07ZM315.022 291.08C315.022 293.64 315.363 296.115 316.046 298.504C316.814 300.893 317.923 302.984 319.374 304.776C320.825 306.568 322.659 308.019 324.878 309.128C327.097 310.152 329.742 310.664 332.814 310.664C337.081 310.664 340.494 309.768 343.054 307.976C345.699 306.099 347.662 303.325 348.942 299.656H362.766C361.998 303.24 360.675 306.44 358.798 309.256C356.921 312.072 354.659 314.461 352.014 316.424C349.369 318.301 346.382 319.709 343.054 320.648C339.811 321.672 336.398 322.184 332.814 322.184C327.609 322.184 323.001 321.331 318.99 319.624C314.979 317.917 311.566 315.528 308.75 312.456C306.019 309.384 303.929 305.715 302.478 301.448C301.113 297.181 300.43 292.488 300.43 287.368C300.43 282.675 301.155 278.237 302.606 274.056C304.142 269.789 306.275 266.077 309.006 262.92C311.822 259.677 315.193 257.117 319.118 255.24C323.043 253.363 327.481 252.424 332.43 252.424C337.635 252.424 342.286 253.533 346.382 255.752C350.563 257.885 354.019 260.744 356.75 264.328C359.481 267.912 361.443 272.051 362.638 276.744C363.918 281.352 364.259 286.131 363.662 291.08H315.022Z" fill="black"/>
<path d="M372.579 229H387.171V242.824H372.579V229ZM372.579 254.216H387.171V320.392H372.579V254.216Z" fill="black"/>
<path d="M400.894 229H415.486V242.824H400.894V229ZM400.894 254.216H415.486V320.392H400.894V254.216Z" fill="black"/>
<path d="M217.436 0H234.46L269.66 91.392H252.508L243.932 67.2H207.452L198.876 91.392H182.364L217.436 0ZM211.804 55.04H239.708L226.012 15.744H225.628L211.804 55.04Z" fill="black"/>
<path d="M273.755 25.216H287.579V34.944L287.835 35.2C290.054 31.5307 292.955 28.672 296.539 26.624C300.123 24.4907 304.091 23.424 308.443 23.424C315.696 23.424 321.414 25.3013 325.595 29.056C329.776 32.8107 331.867 38.4427 331.867 45.952V91.392H317.275V49.792C317.104 44.5867 315.995 40.832 313.947 38.528C311.899 36.1387 308.699 34.944 304.347 34.944C301.872 34.944 299.654 35.4133 297.691 36.352C295.728 37.2053 294.064 38.4427 292.699 40.064C291.334 41.6 290.267 43.4347 289.499 45.568C288.731 47.7013 288.347 49.9627 288.347 52.352V91.392H273.755V25.216Z" fill="black"/>
<path d="M400.119 76.672C400.119 78.464 400.332 79.744 400.759 80.512C401.271 81.28 402.21 81.664 403.575 81.664C404.002 81.664 404.514 81.664 405.111 81.664C405.708 81.664 406.391 81.5787 407.159 81.408V91.52C406.647 91.6907 405.964 91.8613 405.111 92.032C404.343 92.288 403.532 92.5013 402.679 92.672C401.826 92.8427 400.972 92.9707 400.119 93.056C399.266 93.1413 398.54 93.184 397.943 93.184C394.956 93.184 392.482 92.5867 390.519 91.392C388.556 90.1973 387.276 88.1067 386.679 85.12C383.778 87.936 380.194 89.984 375.927 91.264C371.746 92.544 367.692 93.184 363.767 93.184C360.78 93.184 357.922 92.7573 355.191 91.904C352.46 91.136 350.028 89.984 347.895 88.448C345.847 86.8267 344.183 84.8213 342.903 82.432C341.708 79.9573 341.111 77.0987 341.111 73.856C341.111 69.76 341.836 66.432 343.287 63.872C344.823 61.312 346.786 59.3067 349.175 57.856C351.65 56.4053 354.38 55.3813 357.367 54.784C360.439 54.1013 363.511 53.5893 366.583 53.248C369.228 52.736 371.746 52.3947 374.135 52.224C376.524 51.968 378.615 51.584 380.407 51.072C382.284 50.56 383.735 49.792 384.759 48.768C385.868 47.6587 386.423 46.0373 386.423 43.904C386.423 42.0267 385.954 40.4907 385.015 39.296C384.162 38.1013 383.052 37.2053 381.687 36.608C380.407 35.9253 378.956 35.4987 377.335 35.328C375.714 35.072 374.178 34.944 372.727 34.944C368.631 34.944 365.26 35.7973 362.615 37.504C359.97 39.2107 358.476 41.856 358.135 45.44H343.543C343.799 41.1733 344.823 37.632 346.615 34.816C348.407 32 350.668 29.7387 353.399 28.032C356.215 26.3253 359.372 25.1307 362.871 24.448C366.37 23.7653 369.954 23.424 373.623 23.424C376.866 23.424 380.066 23.7653 383.223 24.448C386.38 25.1307 389.196 26.24 391.671 27.776C394.231 29.312 396.279 31.3173 397.815 33.792C399.351 36.1813 400.119 39.1253 400.119 42.624V76.672ZM385.527 58.24C383.308 59.6907 380.578 60.5867 377.335 60.928C374.092 61.184 370.85 61.6107 367.607 62.208C366.071 62.464 364.578 62.848 363.127 63.36C361.676 63.7867 360.396 64.4267 359.287 65.28C358.178 66.048 357.282 67.1147 356.599 68.48C356.002 69.76 355.703 71.3387 355.703 73.216C355.703 74.8373 356.172 76.2027 357.111 77.312C358.05 78.4213 359.159 79.3173 360.439 80C361.804 80.5973 363.255 81.024 364.791 81.28C366.412 81.536 367.863 81.664 369.143 81.664C370.764 81.664 372.514 81.4507 374.391 81.024C376.268 80.5973 378.018 79.872 379.639 78.848C381.346 77.824 382.754 76.544 383.863 75.008C384.972 73.3867 385.527 71.424 385.527 69.12V58.24Z" fill="black"/>
<path d="M69.688 178.144C70.1147 182.411 71.736 185.397 74.552 187.104C77.368 188.811 80.7387 189.664 84.664 189.664C86.0294 189.664 87.5654 189.579 89.272 189.408C91.064 189.152 92.728 188.725 94.264 188.128C95.8 187.531 97.0374 186.677 97.976 185.568C99 184.373 99.4694 182.837 99.384 180.96C99.2987 179.083 98.616 177.547 97.336 176.352C96.056 175.157 94.392 174.219 92.344 173.536C90.3814 172.768 88.12 172.128 85.56 171.616C83 171.104 80.3974 170.549 77.752 169.952C75.0214 169.355 72.376 168.629 69.816 167.776C67.3414 166.923 65.08 165.771 63.032 164.32C61.0694 162.869 59.4907 161.035 58.296 158.816C57.1013 156.512 56.504 153.696 56.504 150.368C56.504 146.784 57.3573 143.797 59.064 141.408C60.856 138.933 63.0747 136.971 65.72 135.52C68.4507 133.984 71.4374 132.917 74.68 132.32C78.008 131.723 81.1654 131.424 84.152 131.424C87.5654 131.424 90.808 131.808 93.88 132.576C97.0374 133.259 99.8534 134.411 102.328 136.032C104.888 137.653 106.979 139.787 108.6 142.432C110.307 144.992 111.373 148.107 111.8 151.776H96.568C95.8854 148.277 94.264 145.931 91.704 144.736C89.2294 143.541 86.3707 142.944 83.128 142.944C82.104 142.944 80.8667 143.029 79.416 143.2C78.0507 143.371 76.728 143.712 75.448 144.224C74.2534 144.651 73.2294 145.333 72.376 146.272C71.5227 147.125 71.096 148.277 71.096 149.728C71.096 151.52 71.6934 152.971 72.888 154.08C74.168 155.189 75.7894 156.128 77.752 156.896C79.8 157.579 82.104 158.176 84.664 158.688C87.224 159.2 89.8694 159.755 92.6 160.352C95.2454 160.949 97.848 161.675 100.408 162.528C102.968 163.381 105.229 164.533 107.192 165.984C109.24 167.435 110.861 169.269 112.056 171.488C113.336 173.707 113.976 176.437 113.976 179.68C113.976 183.605 113.08 186.933 111.288 189.664C109.496 192.395 107.149 194.613 104.248 196.32C101.432 198.027 98.2747 199.264 94.776 200.032C91.2774 200.8 87.8214 201.184 84.408 201.184C80.2267 201.184 76.344 200.715 72.76 199.776C69.2614 198.837 66.1894 197.429 63.544 195.552C60.984 193.589 58.936 191.2 57.4 188.384C55.9493 185.483 55.1813 182.069 55.096 178.144H69.688Z" fill="black"/>
<path d="M115.839 133.216H126.847V113.376H141.439V133.216H154.623V144.096H141.439V179.424C141.439 180.96 141.482 182.283 141.567 183.392C141.738 184.501 142.036 185.44 142.463 186.208C142.975 186.976 143.7 187.573 144.639 188C145.578 188.341 146.858 188.512 148.479 188.512C149.503 188.512 150.527 188.512 151.551 188.512C152.575 188.427 153.599 188.256 154.623 188V199.264C153.002 199.435 151.423 199.605 149.887 199.776C148.351 199.947 146.772 200.032 145.151 200.032C141.311 200.032 138.196 199.691 135.807 199.008C133.503 198.24 131.668 197.173 130.303 195.808C129.023 194.357 128.127 192.565 127.615 190.432C127.188 188.299 126.932 185.867 126.847 183.136V144.096H115.839V133.216Z" fill="black"/>
<path d="M217.984 184.672C217.984 186.464 218.197 187.744 218.624 188.512C219.136 189.28 220.075 189.664 221.44 189.664C221.867 189.664 222.379 189.664 222.976 189.664C223.573 189.664 224.256 189.579 225.024 189.408V199.52C224.512 199.691 223.829 199.861 222.976 200.032C222.208 200.288 221.397 200.501 220.544 200.672C219.691 200.843 218.837 200.971 217.984 201.056C217.131 201.141 216.405 201.184 215.808 201.184C212.821 201.184 210.347 200.587 208.384 199.392C206.421 198.197 205.141 196.107 204.544 193.12C201.643 195.936 198.059 197.984 193.792 199.264C189.611 200.544 185.557 201.184 181.632 201.184C178.645 201.184 175.787 200.757 173.056 199.904C170.325 199.136 167.893 197.984 165.76 196.448C163.712 194.827 162.048 192.821 160.768 190.432C159.573 187.957 158.976 185.099 158.976 181.856C158.976 177.76 159.701 174.432 161.152 171.872C162.688 169.312 164.651 167.307 167.04 165.856C169.515 164.405 172.245 163.381 175.232 162.784C178.304 162.101 181.376 161.589 184.448 161.248C187.093 160.736 189.611 160.395 192 160.224C194.389 159.968 196.48 159.584 198.272 159.072C200.149 158.56 201.6 157.792 202.624 156.768C203.733 155.659 204.288 154.037 204.288 151.904C204.288 150.027 203.819 148.491 202.88 147.296C202.027 146.101 200.917 145.205 199.552 144.608C198.272 143.925 196.821 143.499 195.2 143.328C193.579 143.072 192.043 142.944 190.592 142.944C186.496 142.944 183.125 143.797 180.48 145.504C177.835 147.211 176.341 149.856 176 153.44H161.408C161.664 149.173 162.688 145.632 164.48 142.816C166.272 140 168.533 137.739 171.264 136.032C174.08 134.325 177.237 133.131 180.736 132.448C184.235 131.765 187.819 131.424 191.488 131.424C194.731 131.424 197.931 131.765 201.088 132.448C204.245 133.131 207.061 134.24 209.536 135.776C212.096 137.312 214.144 139.317 215.68 141.792C217.216 144.181 217.984 147.125 217.984 150.624V184.672ZM203.392 166.24C201.173 167.691 198.443 168.587 195.2 168.928C191.957 169.184 188.715 169.611 185.472 170.208C183.936 170.464 182.443 170.848 180.992 171.36C179.541 171.787 178.261 172.427 177.152 173.28C176.043 174.048 175.147 175.115 174.464 176.48C173.867 177.76 173.568 179.339 173.568 181.216C173.568 182.837 174.037 184.203 174.976 185.312C175.915 186.421 177.024 187.317 178.304 188C179.669 188.597 181.12 189.024 182.656 189.28C184.277 189.536 185.728 189.664 187.008 189.664C188.629 189.664 190.379 189.451 192.256 189.024C194.133 188.597 195.883 187.872 197.504 186.848C199.211 185.824 200.619 184.544 201.728 183.008C202.837 181.387 203.392 179.424 203.392 177.12V166.24Z" fill="black"/>
<path d="M242.133 178.144C242.56 182.411 244.181 185.397 246.997 187.104C249.813 188.811 253.184 189.664 257.109 189.664C258.474 189.664 260.01 189.579 261.717 189.408C263.509 189.152 265.173 188.725 266.709 188.128C268.245 187.531 269.482 186.677 270.421 185.568C271.445 184.373 271.914 182.837 271.829 180.96C271.744 179.083 271.061 177.547 269.781 176.352C268.501 175.157 266.837 174.219 264.789 173.536C262.826 172.768 260.565 172.128 258.005 171.616C255.445 171.104 252.842 170.549 250.197 169.952C247.466 169.355 244.821 168.629 242.261 167.776C239.786 166.923 237.525 165.771 235.477 164.32C233.514 162.869 231.936 161.035 230.741 158.816C229.546 156.512 228.949 153.696 228.949 150.368C228.949 146.784 229.802 143.797 231.509 141.408C233.301 138.933 235.52 136.971 238.165 135.52C240.896 133.984 243.882 132.917 247.125 132.32C250.453 131.723 253.61 131.424 256.597 131.424C260.01 131.424 263.253 131.808 266.325 132.576C269.482 133.259 272.298 134.411 274.773 136.032C277.333 137.653 279.424 139.787 281.045 142.432C282.752 144.992 283.818 148.107 284.245 151.776H269.013C268.33 148.277 266.709 145.931 264.149 144.736C261.674 143.541 258.816 142.944 255.573 142.944C254.549 142.944 253.312 143.029 251.861 143.2C250.496 143.371 249.173 143.712 247.893 144.224C246.698 144.651 245.674 145.333 244.821 146.272C243.968 147.125 243.541 148.277 243.541 149.728C243.541 151.52 244.138 152.971 245.333 154.08C246.613 155.189 248.234 156.128 250.197 156.896C252.245 157.579 254.549 158.176 257.109 158.688C259.669 159.2 262.314 159.755 265.045 160.352C267.69 160.949 270.293 161.675 272.853 162.528C275.413 163.381 277.674 164.533 279.637 165.984C281.685 167.435 283.306 169.269 284.501 171.488C285.781 173.707 286.421 176.437 286.421 179.68C286.421 183.605 285.525 186.933 283.733 189.664C281.941 192.395 279.594 194.613 276.693 196.32C273.877 198.027 270.72 199.264 267.221 200.032C263.722 200.8 260.266 201.184 256.853 201.184C252.672 201.184 248.789 200.715 245.205 199.776C241.706 198.837 238.634 197.429 235.989 195.552C233.429 193.589 231.381 191.2 229.845 188.384C228.394 185.483 227.626 182.069 227.541 178.144H242.133Z" fill="black"/>
<path d="M295.324 108H309.916V121.824H295.324V108ZM295.324 133.216H309.916V199.392H295.324V133.216Z" fill="black"/>
<path d="M323.639 108H338.231V121.824H323.639V108ZM323.639 133.216H338.231V199.392H323.639V133.216Z" fill="black"/>
<path d="M406.994 184.672C406.994 186.464 407.207 187.744 407.634 188.512C408.146 189.28 409.085 189.664 410.45 189.664C410.877 189.664 411.389 189.664 411.986 189.664C412.583 189.664 413.266 189.579 414.034 189.408V199.52C413.522 199.691 412.839 199.861 411.986 200.032C411.218 200.288 410.407 200.501 409.554 200.672C408.701 200.843 407.847 200.971 406.994 201.056C406.141 201.141 405.415 201.184 404.818 201.184C401.831 201.184 399.357 200.587 397.394 199.392C395.431 198.197 394.151 196.107 393.554 193.12C390.653 195.936 387.069 197.984 382.802 199.264C378.621 200.544 374.567 201.184 370.642 201.184C367.655 201.184 364.797 200.757 362.066 199.904C359.335 199.136 356.903 197.984 354.77 196.448C352.722 194.827 351.058 192.821 349.778 190.432C348.583 187.957 347.986 185.099 347.986 181.856C347.986 177.76 348.711 174.432 350.162 171.872C351.698 169.312 353.661 167.307 356.05 165.856C358.525 164.405 361.255 163.381 364.242 162.784C367.314 162.101 370.386 161.589 373.458 161.248C376.103 160.736 378.621 160.395 381.01 160.224C383.399 159.968 385.49 159.584 387.282 159.072C389.159 158.56 390.61 157.792 391.634 156.768C392.743 155.659 393.298 154.037 393.298 151.904C393.298 150.027 392.829 148.491 391.89 147.296C391.037 146.101 389.927 145.205 388.562 144.608C387.282 143.925 385.831 143.499 384.21 143.328C382.589 143.072 381.053 142.944 379.602 142.944C375.506 142.944 372.135 143.797 369.49 145.504C366.845 147.211 365.351 149.856 365.01 153.44H350.418C350.674 149.173 351.698 145.632 353.49 142.816C355.282 140 357.543 137.739 360.274 136.032C363.09 134.325 366.247 133.131 369.746 132.448C373.245 131.765 376.829 131.424 380.498 131.424C383.741 131.424 386.941 131.765 390.098 132.448C393.255 133.131 396.071 134.24 398.546 135.776C401.106 137.312 403.154 139.317 404.69 141.792C406.226 144.181 406.994 147.125 406.994 150.624V184.672ZM392.402 166.24C390.183 167.691 387.453 168.587 384.21 168.928C380.967 169.184 377.725 169.611 374.482 170.208C372.946 170.464 371.453 170.848 370.002 171.36C368.551 171.787 367.271 172.427 366.162 173.28C365.053 174.048 364.157 175.115 363.474 176.48C362.877 177.76 362.578 179.339 362.578 181.216C362.578 182.837 363.047 184.203 363.986 185.312C364.925 186.421 366.034 187.317 367.314 188C368.679 188.597 370.13 189.024 371.666 189.28C373.287 189.536 374.738 189.664 376.018 189.664C377.639 189.664 379.389 189.451 381.266 189.024C383.143 188.597 384.893 187.872 386.514 186.848C388.221 185.824 389.629 184.544 390.738 183.008C391.847 181.387 392.402 179.424 392.402 177.12V166.24Z" fill="black"/>
<path d="M1.72853e-05 34.392H170V55.392H1.72853e-05V45V34.392Z" fill="black"/>
<path d="M1.72853e-05 155.392H40V176.392H0L1.72853e-05 155.392Z" fill="black"/>
</svg>
